<svg width="88" height="43" viewBox="0 0 88 43" fill="none" xmlns="http://www.w3.org/2000/svg">
<path fill-rule="evenodd" clip-rule="evenodd" d="M13.608 37.096C12.9733 36.984 12.6 36.872 12.488 36.76L12.152 36.032C12.0773 33.12 12.0213 30.712 11.984 28.808C11.9467 26.904 11.928 25.336 11.928 24.104V21.92C11.9653 21.3227 11.984 20.8373 11.984 20.464V19.456C12.0213 19.1947 12.04 18.952 12.04 18.728C12.04 17.7947 12.0027 16.9173 11.928 16.096C11.8533 15.2373 11.816 14.4907 11.816 13.856C11.816 12.96 11.7973 12.2507 11.76 11.728C11.7227 11.2053 11.6667 10.664 11.592 10.104C11.5547 9.50667 11.5173 8.76 11.48 7.864C11.4427 6.968 11.424 5.68 11.424 4C12.2827 3.776 13.048 3.664 13.72 3.664C14.392 3.62666 15.2507 3.608 16.296 3.608C16.5573 3.608 16.8187 3.64533 17.08 3.72C17.3413 3.75733 17.5467 3.85067 17.696 4C18.144 5.86666 18.4613 7.67733 18.648 9.432C18.872 11.1493 19.0213 12.8667 19.096 14.584C19.1707 16.3013 19.208 18.0373 19.208 19.792C19.2453 21.5467 19.32 23.376 19.432 25.28C19.6187 27.1093 19.7307 29.0507 19.768 31.104C19.8427 33.1573 19.88 35.304 19.88 37.544C19.544 37.5067 18.984 37.4693 18.2 37.432C17.4533 37.3947 16.6693 37.3573 15.848 37.32C15.0267 37.2453 14.28 37.1707 13.608 37.096ZM3.864 38.776C3.34133 39.224 3.08 39.7653 3.08 40.4C3.08 40.848 3.15467 41.2213 3.304 41.52C3.49067 41.856 3.84533 42.024 4.368 42.024C4.74133 42.024 5.11467 41.9307 5.488 41.744C5.86133 41.5573 6.23467 41.3333 6.608 41.072C6.98133 40.848 7.35467 40.6427 7.728 40.456C8.13867 40.2693 8.568 40.176 9.016 40.176C9.50133 40.176 9.856 40.3067 10.08 40.568C10.3413 40.8293 10.6773 40.96 11.088 40.96C11.3867 40.96 11.592 40.904 11.704 40.792C11.8533 40.68 12.0027 40.4747 12.152 40.176H14.616C16.296 40.176 17.9387 40.3067 19.544 40.568C21.1493 40.8293 22.792 40.96 24.472 40.96C24.7333 40.96 25.256 40.9227 26.04 40.848C26.824 40.8107 27.7387 40.6613 28.784 40.4C29.8293 40.1387 30.9307 39.7467 32.088 39.224C33.2453 38.7387 34.2907 38.048 35.224 37.152C36.1947 36.2187 36.9973 35.08 37.632 33.736C38.2667 32.3547 38.584 30.6747 38.584 28.696C38.584 26.4933 38.0427 24.72 36.96 23.376C35.9147 21.9947 34.3653 20.912 32.312 20.128C33.4693 19.1573 34.2907 18.224 34.776 17.328C35.2987 16.432 35.56 15.2933 35.56 13.912C35.56 13.7253 35.5413 13.4267 35.504 13.016C35.4667 12.6053 35.4293 12.3813 35.392 12.344C35.4293 12.2693 35.448 12.1013 35.448 11.84C35.448 11.4293 35.336 10.8693 35.112 10.16C34.9253 9.45066 34.552 8.704 33.992 7.92C33.4693 7.09867 32.7227 6.27733 31.752 5.456C30.7813 4.59733 29.5307 3.832 28 3.16C26.5067 2.488 24.6773 1.94666 22.512 1.536C20.384 1.088 17.864 0.863997 14.952 0.863997C13.4587 0.863997 11.984 1.06933 10.528 1.48C9.072 1.89066 7.70933 2.488 6.44 3.272C5.17067 4.01867 4.032 4.952 3.024 6.072C2.016 7.192 1.232 8.46133 0.672 9.88C0.634667 9.95467 0.616 10.0667 0.616 10.216V10.44C0.616 10.8507 0.746667 11.224 1.008 11.56C1.30667 11.896 1.66133 12.064 2.072 12.064C2.55733 12.064 3.024 11.728 3.472 11.056C3.95733 10.3467 4.44267 9.58133 4.928 8.76C5.45067 7.90133 6.01067 7.136 6.608 6.464C7.20533 5.75467 7.896 5.4 8.68 5.4C9.27733 9.69333 9.59467 12.8853 9.632 14.976C9.70667 17.0667 9.744 18.1867 9.744 18.336C9.14667 18.3733 8.64267 18.5227 8.232 18.784C7.82133 19.0453 7.616 19.4933 7.616 20.128C7.616 20.576 7.74667 20.8933 8.008 21.08C8.26933 21.2293 8.54933 21.36 8.848 21.472C9.14667 21.5467 9.42667 21.64 9.688 21.752C9.94933 21.864 10.08 22.1067 10.08 22.48V36.424L9.744 36.76C9.296 36.8347 8.69867 36.9467 7.952 37.096C7.20533 37.208 6.45867 37.4133 5.712 37.712C5.00267 37.9733 4.38667 38.328 3.864 38.776ZM21.728 30.544C21.616 28.2667 21.56 25.952 21.56 23.6V23.376C21.56 23.0773 21.672 22.9093 21.896 22.872C22.1573 22.8347 22.624 22.7787 23.296 22.704C24.0053 22.592 24.7333 22.48 25.48 22.368C26.264 22.256 26.992 22.144 27.664 22.032C28.3733 21.92 28.8587 21.8453 29.12 21.808H30.184C31.4533 22.2187 32.4613 22.592 33.208 22.928C33.992 23.264 34.5893 23.712 35 24.272C35.448 24.832 35.7467 25.5413 35.896 26.4C36.0453 27.2587 36.12 28.3973 36.12 29.816C36.12 31.384 35.672 32.7093 34.776 33.792C33.9173 34.8373 32.8347 35.696 31.528 36.368C30.2587 37.04 28.896 37.5253 27.44 37.824C25.984 38.0853 24.6773 38.216 23.52 38.216C23.3333 38.216 23.0533 38.1787 22.68 38.104C22.344 38.0293 22.176 37.8987 22.176 37.712V37.544C22.176 37.5067 22.1947 37.4693 22.232 37.432C22.0453 35.1173 21.8773 32.8213 21.728 30.544ZM20.888 8.424C20.8133 7.15466 20.776 5.792 20.776 4.336H21.896C21.896 4.29867 21.9893 4.28 22.176 4.28C22.624 4.28 23.4267 4.41067 24.584 4.672C25.7413 4.896 26.9173 5.344 28.112 6.016C29.344 6.688 30.4267 7.60266 31.36 8.76C32.2933 9.88 32.76 11.336 32.76 13.128C32.76 13.9493 32.48 14.9387 31.92 16.096C31.3973 17.2533 30.464 18.2427 29.12 19.064L28.504 19.176C28.1307 19.2507 27.664 19.3253 27.104 19.4C26.544 19.4747 25.9653 19.5493 25.368 19.624C24.808 19.6613 24.3413 19.6987 23.968 19.736C23.856 19.736 23.688 19.7547 23.464 19.792H22.736C22.512 19.792 22.288 19.8107 22.064 19.848H21.616C21.616 18.392 21.56 17.048 21.448 15.816C21.3733 14.5467 21.28 13.3147 21.168 12.12C21.0933 10.888 21 9.656 20.888 8.424ZM41.648 12.588C41.444 12.9 41.342 13.278 41.342 13.722C41.342 13.902 41.396 14.118 41.504 14.37C41.612 14.61 41.768 14.838 41.972 15.054C42.176 15.282 42.428 15.468 42.728 15.612C43.028 15.768 43.37 15.846 43.754 15.846C44.354 15.846 44.918 15.72 45.446 15.468C45.986 15.216 46.454 14.85 46.85 14.37C46.862 14.37 46.904 14.412 46.976 14.496L47.246 14.766C47.342 14.862 47.438 14.952 47.534 15.036C47.63 15.132 47.702 15.198 47.75 15.234C47.966 15.366 48.158 15.456 48.326 15.504C48.494 15.552 48.752 15.576 49.1 15.576C49.352 15.576 49.58 15.528 49.784 15.432C49.988 15.348 50.162 15.246 50.306 15.126C50.45 15.006 50.558 14.88 50.63 14.748C50.702 14.616 50.738 14.502 50.738 14.406C50.738 14.298 50.708 14.208 50.648 14.136C50.6 14.064 50.504 14.028 50.36 14.028C50.3 14.028 50.234 14.052 50.162 14.1C50.102 14.148 50.036 14.172 49.964 14.172C49.832 14.172 49.706 14.112 49.586 13.992C49.466 13.86 49.358 13.698 49.262 13.506C49.178 13.314 49.106 13.116 49.046 12.912C48.998 12.696 48.974 12.498 48.974 12.318C48.974 11.874 49.016 11.484 49.1 11.148C49.184 10.812 49.226 10.482 49.226 10.158C49.226 9.978 49.214 9.78 49.19 9.564C49.166 9.348 49.118 9.126 49.046 8.898C48.986 8.67 48.896 8.454 48.776 8.25C48.668 8.046 48.524 7.86 48.344 7.692C48.164 7.536 47.96 7.404 47.732 7.296C47.504 7.188 47.264 7.104 47.012 7.044C46.772 6.972 46.532 6.924 46.292 6.9C46.052 6.876 45.83 6.864 45.626 6.864C45.17 6.864 44.786 6.954 44.474 7.134C44.162 7.302 43.82 7.524 43.448 7.8C43.352 7.872 43.238 7.992 43.106 8.16C42.974 8.328 42.848 8.514 42.728 8.718C42.608 8.91 42.506 9.102 42.422 9.294C42.338 9.486 42.296 9.642 42.296 9.762C42.296 9.87 42.32 9.99 42.368 10.122C42.428 10.254 42.512 10.32 42.62 10.32C42.668 10.32 42.746 10.302 42.854 10.266C42.962 10.23 43.082 10.194 43.214 10.158L43.61 10.05C43.754 10.014 43.88 9.996 43.988 9.996H44.33C44.45 9.984 44.564 9.966 44.672 9.942C44.78 9.906 44.87 9.858 44.942 9.798C45.014 9.726 45.05 9.63 45.05 9.51C45.05 9.378 45.02 9.288 44.96 9.24C44.912 9.192 44.888 9.102 44.888 8.97C44.888 8.91 44.894 8.826 44.906 8.718C44.918 8.598 44.948 8.484 44.996 8.376C45.056 8.268 45.14 8.172 45.248 8.088C45.356 8.004 45.512 7.962 45.716 7.962C45.992 7.962 46.214 8.004 46.382 8.088C46.55 8.16 46.682 8.262 46.778 8.394C46.874 8.526 46.94 8.676 46.976 8.844C47.012 9.012 47.03 9.192 47.03 9.384C47.03 9.732 47.012 9.99 46.976 10.158C46.94 10.314 46.874 10.428 46.778 10.5C46.682 10.56 46.544 10.602 46.364 10.626C46.196 10.65 45.974 10.686 45.698 10.734C45.05 10.854 44.456 10.998 43.916 11.166C43.388 11.322 42.932 11.52 42.548 11.76C42.164 11.988 41.864 12.264 41.648 12.588ZM42.152 14.172C42.044 13.992 41.99 13.794 41.99 13.578C41.99 13.326 42.056 13.104 42.188 12.912C42.332 12.708 42.512 12.528 42.728 12.372C42.944 12.216 43.178 12.078 43.43 11.958C43.682 11.826 43.922 11.706 44.15 11.598C43.982 11.838 43.844 12.084 43.736 12.336C43.64 12.576 43.592 12.834 43.592 13.11C43.592 13.47 43.634 13.8 43.718 14.1C43.814 14.388 43.922 14.67 44.042 14.946C43.934 14.994 43.814 15.018 43.682 15.018C43.514 15.018 43.328 14.988 43.124 14.928C42.932 14.856 42.752 14.76 42.584 14.64C42.416 14.508 42.272 14.352 42.152 14.172ZM44.348 13.434C44.336 13.242 44.33 13.098 44.33 13.002C44.33 12.714 44.396 12.462 44.528 12.246C44.66 12.03 44.828 11.856 45.032 11.724C45.236 11.592 45.464 11.496 45.716 11.436C45.98 11.364 46.238 11.328 46.49 11.328L46.274 13.578C46.262 13.734 46.208 13.884 46.112 14.028C46.028 14.16 45.914 14.28 45.77 14.388C45.638 14.496 45.494 14.58 45.338 14.64C45.182 14.7 45.032 14.73 44.888 14.73C44.768 14.718 44.672 14.64 44.6 14.496C44.528 14.34 44.468 14.172 44.42 13.992C44.384 13.8 44.36 13.614 44.348 13.434ZM47.732 10.374C47.804 10.158 47.84 9.912 47.84 9.636C47.84 9.36 47.804 9.108 47.732 8.88C47.672 8.64 47.552 8.382 47.372 8.106C47.528 8.13 47.678 8.196 47.822 8.304C47.966 8.4 48.092 8.526 48.2 8.682C48.32 8.838 48.41 9.006 48.47 9.186C48.542 9.366 48.578 9.54 48.578 9.708C48.578 9.948 48.56 10.152 48.524 10.32C48.5 10.488 48.464 10.65 48.416 10.806C48.38 10.962 48.344 11.124 48.308 11.292C48.284 11.448 48.272 11.634 48.272 11.85C48.272 12.378 48.338 12.888 48.47 13.38C48.602 13.86 48.86 14.322 49.244 14.766C48.86 14.766 48.536 14.7 48.272 14.568C48.02 14.424 47.81 14.244 47.642 14.028C47.486 13.8 47.372 13.542 47.3 13.254C47.24 12.966 47.21 12.666 47.21 12.354C47.21 12.066 47.24 11.814 47.3 11.598C47.372 11.382 47.444 11.178 47.516 10.986C47.6 10.782 47.672 10.578 47.732 10.374ZM43.844 8.25C44 8.142 44.15 8.082 44.294 8.07C44.294 8.19 44.288 8.322 44.276 8.466V8.862C44.276 9.162 44.3 9.378 44.348 9.51C44.312 9.498 44.258 9.492 44.186 9.492H43.97C43.802 9.492 43.622 9.504 43.43 9.528C43.238 9.54 43.112 9.576 43.052 9.636C43.052 9.48 43.088 9.312 43.16 9.132C43.244 8.952 43.34 8.784 43.448 8.628C43.568 8.472 43.7 8.346 43.844 8.25ZM51.3511 14.388C51.2551 14.424 51.2071 14.49 51.2071 14.586C51.2071 14.898 51.2971 15.09 51.4771 15.162C51.6691 15.234 51.9031 15.27 52.1791 15.27C52.7431 15.27 53.2951 15.246 53.8351 15.198C54.3751 15.162 54.9331 15.144 55.5091 15.144H55.7971C55.8931 15.156 55.9891 15.162 56.0851 15.162C56.2291 15.078 56.3011 14.964 56.3011 14.82C56.3011 14.676 56.2531 14.586 56.1571 14.55C56.0611 14.502 55.9531 14.466 55.8331 14.442C55.7131 14.406 55.6051 14.364 55.5091 14.316C55.4131 14.268 55.3651 14.166 55.3651 14.01C55.3651 13.746 55.3591 13.53 55.3471 13.362V12.84C55.3471 12.516 55.3591 12.192 55.3831 11.868C55.4191 11.544 55.4911 11.214 55.5991 10.878C55.7191 10.542 55.8871 10.206 56.1031 9.87C56.3311 9.522 56.6311 9.174 57.0031 8.826C57.0871 9.042 57.1651 9.288 57.2371 9.564C57.3091 9.828 57.3871 10.08 57.4711 10.32C57.5671 10.56 57.6871 10.764 57.8311 10.932C57.9751 11.1 58.1731 11.184 58.4251 11.184C58.7251 11.184 58.9771 11.124 59.1811 11.004C59.3971 10.884 59.5711 10.734 59.7031 10.554C59.8351 10.374 59.9251 10.176 59.9731 9.96C60.0331 9.732 60.0631 9.51 60.0631 9.294C60.0631 9.018 60.0091 8.742 59.9011 8.466C59.8051 8.178 59.6671 7.92 59.4871 7.692C59.3071 7.464 59.0911 7.278 58.8391 7.134C58.5871 6.99 58.3111 6.918 58.0111 6.918C57.7711 6.918 57.5431 7.014 57.3271 7.206C57.1231 7.386 56.9251 7.602 56.7331 7.854C56.5411 8.106 56.3611 8.358 56.1931 8.61C56.0251 8.862 55.8631 9.054 55.7071 9.186C55.7791 8.982 55.8271 8.766 55.8511 8.538C55.8871 8.298 55.9051 8.058 55.9051 7.818C55.9051 7.446 55.7671 7.26 55.4911 7.26C55.4791 7.26 55.3891 7.272 55.2211 7.296C55.0531 7.32 54.8371 7.356 54.5731 7.404C54.3211 7.44 54.0331 7.482 53.7091 7.53C53.3851 7.566 53.0671 7.608 52.7551 7.656C52.4431 7.692 52.1431 7.728 51.8551 7.764C51.5791 7.8 51.3511 7.824 51.1711 7.836C51.0871 7.86 51.0451 7.926 51.0451 8.034C51.0451 8.274 51.1111 8.43 51.2431 8.502C51.3871 8.562 51.5491 8.604 51.7291 8.628C51.9091 8.652 52.0771 8.688 52.2331 8.736C52.4011 8.772 52.5091 8.886 52.5571 9.078C52.5691 9.114 52.5811 9.216 52.5931 9.384C52.6171 9.54 52.6351 9.744 52.6471 9.996C52.6711 10.248 52.6891 10.53 52.7011 10.842C52.7131 11.154 52.7191 11.466 52.7191 11.778C52.7191 12.306 52.6891 12.792 52.6291 13.236C52.5811 13.68 52.4791 13.986 52.3231 14.154C52.2631 14.214 52.1731 14.256 52.0531 14.28C51.9331 14.292 51.8071 14.304 51.6751 14.316C51.5551 14.328 51.4471 14.352 51.3511 14.388ZM53.4571 14.442C53.3131 14.442 53.1991 14.424 53.1151 14.388C53.1391 13.872 53.1811 13.326 53.2411 12.75C53.3131 12.174 53.3491 11.544 53.3491 10.86C53.3491 10.344 53.3131 9.87 53.2411 9.438C53.1811 9.006 53.0671 8.628 52.8991 8.304C53.2471 8.28 53.6071 8.256 53.9791 8.232C54.3511 8.196 54.7291 8.172 55.1131 8.16C55.0171 8.82 54.9391 9.39 54.8791 9.87C54.8311 10.35 54.7951 10.8 54.7711 11.22C54.7471 11.628 54.7291 12.036 54.7171 12.444C54.7051 12.852 54.6991 13.308 54.6991 13.812C54.6991 13.896 54.6571 13.98 54.5731 14.064C54.5011 14.136 54.4051 14.202 54.2851 14.262C54.1651 14.31 54.0271 14.352 53.8711 14.388C53.7271 14.424 53.5891 14.442 53.4571 14.442ZM57.7591 8.664C57.7111 8.352 57.6871 8.07 57.6871 7.818C57.9031 7.818 58.1131 7.86 58.3171 7.944C58.5211 8.016 58.7011 8.124 58.8571 8.268C59.0251 8.4 59.1571 8.556 59.2531 8.736C59.3491 8.916 59.3971 9.114 59.3971 9.33C59.3971 9.606 59.3371 9.864 59.2171 10.104C59.0971 10.332 58.8991 10.446 58.6231 10.446C58.4911 10.446 58.3651 10.356 58.2451 10.176C58.1371 9.996 58.0411 9.774 57.9571 9.51C57.8731 9.246 57.8071 8.964 57.7591 8.664ZM62.4608 11.958C62.4488 12.162 62.4428 12.27 62.4428 12.282C62.4428 12.63 62.4728 12.99 62.5328 13.362C62.6048 13.722 62.7368 14.052 62.9288 14.352C63.1208 14.652 63.3848 14.898 63.7208 15.09C64.0568 15.282 64.4948 15.378 65.0348 15.378C65.1908 15.378 65.4008 15.372 65.6648 15.36C65.9288 15.348 66.1988 15.312 66.4748 15.252C66.7508 15.204 67.0148 15.126 67.2668 15.018C67.5188 14.91 67.7108 14.766 67.8428 14.586V14.568C67.8548 14.556 67.8608 14.544 67.8608 14.532C67.8608 14.352 67.7888 14.238 67.6448 14.19C67.5128 14.142 67.3628 14.118 67.1948 14.118C67.0748 14.118 66.9548 14.124 66.8348 14.136C66.7148 14.148 66.6068 14.154 66.5108 14.154C66.2588 14.154 66.0428 14.052 65.8628 13.848C65.6828 13.644 65.5928 13.422 65.5928 13.182C65.5928 12.87 65.6048 12.6 65.6288 12.372C65.6528 12.144 65.6828 11.934 65.7188 11.742C65.7548 11.55 65.7848 11.364 65.8088 11.184C65.8328 11.004 65.8448 10.794 65.8448 10.554C65.8568 10.422 65.8808 10.248 65.9168 10.032C65.9528 9.804 65.9888 9.582 66.0248 9.366C66.0728 9.15 66.1208 8.958 66.1688 8.79C66.2168 8.622 66.2588 8.526 66.2948 8.502C66.3428 8.49 66.4388 8.478 66.5828 8.466C66.7268 8.442 66.8948 8.418 67.0868 8.394C67.2908 8.37 67.5008 8.352 67.7168 8.34C67.9328 8.316 68.1308 8.304 68.3108 8.304C68.3708 8.232 68.4008 8.172 68.4008 8.124C68.4128 8.064 68.4188 8.004 68.4188 7.944C68.4188 7.8 68.3708 7.704 68.2748 7.656C68.1788 7.608 68.0708 7.584 67.9508 7.584C67.6748 7.584 67.4048 7.608 67.1408 7.656C66.8768 7.704 66.6068 7.728 66.3308 7.728C66.3308 7.68 66.3248 7.596 66.3128 7.476C66.3128 7.356 66.3068 7.224 66.2948 7.08C66.2948 6.936 66.2888 6.792 66.2768 6.648V6.288C66.2768 6.12 66.2888 5.916 66.3128 5.676C66.3368 5.436 66.3608 5.208 66.3848 4.992L66.4748 4.452C66.4988 4.308 66.5108 4.242 66.5108 4.254C66.5108 4.062 66.4868 3.9 66.4388 3.768C66.4028 3.624 66.2828 3.552 66.0788 3.552C65.8868 3.552 65.7008 3.582 65.5208 3.642C65.3528 3.702 65.1848 3.78 65.0168 3.876C64.8608 3.96 64.6988 4.05 64.5308 4.146C64.3748 4.23 64.2128 4.296 64.0448 4.344C64.0328 4.344 64.0148 4.35 63.9908 4.362H63.9188H63.7028C63.6428 4.35 63.6068 4.344 63.5948 4.344C63.3548 4.38 63.1208 4.416 62.8928 4.452C62.6648 4.488 62.4608 4.536 62.2808 4.596C62.1008 4.656 61.9508 4.734 61.8308 4.83C61.7228 4.914 61.6688 5.028 61.6688 5.172C61.6688 5.328 61.7288 5.454 61.8488 5.55C61.9688 5.646 62.0948 5.694 62.2268 5.694C62.2868 5.682 62.3588 5.67 62.4428 5.658C62.5268 5.634 62.6048 5.622 62.6768 5.622C62.7488 5.61 62.8028 5.604 62.8388 5.604L62.9108 5.586C62.9108 5.622 62.9168 5.688 62.9288 5.784C62.9408 5.88 62.9528 5.982 62.9648 6.09L63.0008 6.414C63.0128 6.51 63.0188 6.576 63.0188 6.612C63.0188 6.816 63.0068 6.996 62.9828 7.152C62.9588 7.308 62.9348 7.458 62.9108 7.602C62.8628 7.626 62.7428 7.65 62.5508 7.674C62.3588 7.698 62.1368 7.722 61.8848 7.746C61.6448 7.758 61.3928 7.776 61.1288 7.8C60.8648 7.812 60.6368 7.824 60.4448 7.836C60.2768 7.908 60.1928 8.034 60.1928 8.214C60.1928 8.274 60.2168 8.358 60.2648 8.466C60.3008 8.574 60.3608 8.628 60.4448 8.628H62.6588V8.808C62.6708 8.88 62.6768 8.958 62.6768 9.042V9.294C62.6888 9.366 62.6948 9.408 62.6948 9.42C62.6708 9.672 62.6468 9.96 62.6228 10.284C62.5988 10.608 62.5688 10.92 62.5328 11.22C62.5088 11.508 62.4848 11.754 62.4608 11.958ZM63.3788 13.074C63.3548 12.81 63.3428 12.528 63.3428 12.228C63.3428 12.084 63.3548 11.856 63.3788 11.544C63.4148 11.232 63.4508 10.878 63.4868 10.482C63.5348 10.074 63.5828 9.642 63.6308 9.186C63.6788 8.718 63.7208 8.262 63.7568 7.818C63.8048 7.374 63.8408 6.954 63.8648 6.558C63.9008 6.162 63.9188 5.832 63.9188 5.568C63.9188 5.424 63.9908 5.304 64.1348 5.208C64.2908 5.1 64.4588 5.01 64.6388 4.938C64.8308 4.854 65.0108 4.794 65.1788 4.758C65.3588 4.71 65.4728 4.68 65.5208 4.668C65.5208 5.544 65.4968 6.396 65.4488 7.224C65.4128 8.04 65.3168 8.916 65.1608 9.852C65.1248 9.948 65.1008 10.032 65.0888 10.104C65.0768 10.164 65.0648 10.236 65.0528 10.32C65.0408 10.392 65.0348 10.482 65.0348 10.59V11.022C65.0348 11.226 65.0168 11.484 64.9808 11.796C64.9448 12.108 64.9268 12.462 64.9268 12.858C64.9268 13.146 64.9448 13.41 64.9808 13.65C65.0168 13.878 65.1128 14.112 65.2688 14.352C65.2448 14.352 65.1908 14.358 65.1068 14.37H64.9448C64.5608 14.37 64.2608 14.316 64.0448 14.208C63.8408 14.1 63.6848 13.95 63.5768 13.758C63.4688 13.566 63.4028 13.338 63.3788 13.074ZM69.4136 9.69C69.0416 10.218 68.8556 10.74 68.8556 11.256C68.8556 11.64 68.8736 12.012 68.9096 12.372C68.9456 12.72 69.0776 13.05 69.3056 13.362C69.7616 13.986 70.2776 14.502 70.8536 14.91C71.4296 15.318 72.1196 15.522 72.9236 15.522C73.3196 15.522 73.7336 15.486 74.1656 15.414C74.5976 15.354 75.0236 15.252 75.4436 15.108C75.8756 14.976 76.2776 14.802 76.6496 14.586C77.0336 14.37 77.3636 14.112 77.6396 13.812C77.9756 13.44 78.1376 13.194 78.1256 13.074C78.1256 13.026 78.1016 12.948 78.0536 12.84C78.0056 12.732 77.9396 12.678 77.8556 12.678C77.7476 12.678 77.6336 12.738 77.5136 12.858C77.3936 12.966 77.2616 13.098 77.1176 13.254C76.9856 13.398 76.8476 13.548 76.7036 13.704C76.5716 13.848 76.4396 13.956 76.3076 14.028C76.0676 14.16 75.8276 14.268 75.5876 14.352C75.3596 14.424 75.1376 14.484 74.9216 14.532C74.7176 14.568 74.5316 14.592 74.3636 14.604C74.1956 14.616 74.0636 14.622 73.9676 14.622H73.7156C73.5956 14.622 73.5236 14.616 73.4996 14.604C73.3796 14.532 73.2716 14.43 73.1756 14.298C73.0916 14.166 73.0196 14.022 72.9596 13.866C72.8996 13.698 72.8516 13.53 72.8156 13.362C72.7916 13.194 72.7796 13.044 72.7796 12.912V12.804C72.7916 12.744 72.7976 12.702 72.7976 12.678C73.2896 12.63 73.8116 12.516 74.3636 12.336C74.9156 12.144 75.4196 11.892 75.8756 11.58C76.3436 11.268 76.7276 10.896 77.0276 10.464C77.3396 10.032 77.4956 9.54 77.4956 8.988C77.4956 8.568 77.3816 8.22 77.1536 7.944C76.9256 7.656 76.6436 7.434 76.3076 7.278C75.9836 7.11 75.6296 6.996 75.2456 6.936C74.8616 6.864 74.5136 6.828 74.2016 6.828C73.6976 6.828 73.1336 6.96 72.5096 7.224C71.8976 7.488 71.3216 7.836 70.7816 8.268C70.2416 8.688 69.7856 9.162 69.4136 9.69ZM69.9716 12.732C69.8276 12.408 69.7556 12.018 69.7556 11.562C69.7556 11.154 69.8576 10.752 70.0616 10.356C70.2776 9.948 70.5356 9.576 70.8356 9.24C71.1476 8.904 71.4776 8.616 71.8256 8.376C72.1856 8.136 72.5096 7.974 72.7976 7.89C72.5216 8.43 72.2756 9.006 72.0596 9.618C71.8436 10.218 71.7356 10.824 71.7356 11.436C71.7356 11.94 71.7956 12.456 71.9156 12.984C72.0356 13.5 72.1856 13.998 72.3656 14.478C72.0296 14.358 71.7056 14.226 71.3936 14.082C71.0816 13.926 70.7996 13.74 70.5476 13.524C70.3076 13.308 70.1156 13.044 69.9716 12.732ZM72.7436 11.652C72.6236 11.568 72.5636 11.466 72.5636 11.346C72.5636 11.022 72.6056 10.65 72.6896 10.23C72.7736 9.81 72.8876 9.42 73.0316 9.06C73.1756 8.688 73.3496 8.376 73.5536 8.124C73.7696 7.86 74.0036 7.728 74.2556 7.728C74.3996 7.728 74.5316 7.764 74.6516 7.836C74.7836 7.908 74.8916 8.004 74.9756 8.124C75.0596 8.232 75.1256 8.358 75.1736 8.502C75.2216 8.634 75.2456 8.772 75.2456 8.916C75.2456 9.156 75.1796 9.444 75.0476 9.78C74.9276 10.104 74.7656 10.416 74.5616 10.716C74.3696 11.004 74.1536 11.256 73.9136 11.472C73.6856 11.676 73.4636 11.778 73.2476 11.778C73.0316 11.778 72.8636 11.736 72.7436 11.652ZM75.9836 8.412C75.9356 8.22 75.8516 8.034 75.7316 7.854C75.8876 7.854 76.0316 7.908 76.1636 8.016C76.2956 8.112 76.4036 8.232 76.4876 8.376C76.5716 8.52 76.6376 8.664 76.6856 8.808C76.7336 8.952 76.7576 9.06 76.7576 9.132C76.7576 9.396 76.7096 9.636 76.6136 9.852C76.5296 10.056 76.4036 10.254 76.2356 10.446C76.0676 10.638 75.8576 10.824 75.6056 11.004C75.3536 11.184 75.0596 11.37 74.7236 11.562C75.0716 11.142 75.3776 10.716 75.6416 10.284C75.9176 9.84 76.0556 9.39 76.0556 8.934C76.0556 8.766 76.0316 8.592 75.9836 8.412ZM78.9312 14.388C78.8352 14.424 78.7872 14.49 78.7872 14.586C78.7872 14.898 78.8772 15.09 79.0572 15.162C79.2492 15.234 79.4832 15.27 79.7592 15.27C80.3232 15.27 80.8752 15.246 81.4152 15.198C81.9552 15.162 82.5132 15.144 83.0892 15.144H83.3772C83.4732 15.156 83.5692 15.162 83.6652 15.162C83.8092 15.078 83.8812 14.964 83.8812 14.82C83.8812 14.676 83.8332 14.586 83.7372 14.55C83.6412 14.502 83.5332 14.466 83.4132 14.442C83.2932 14.406 83.1852 14.364 83.0892 14.316C82.9932 14.268 82.9452 14.166 82.9452 14.01C82.9452 13.746 82.9392 13.53 82.9272 13.362V12.84C82.9272 12.516 82.9392 12.192 82.9632 11.868C82.9992 11.544 83.0712 11.214 83.1792 10.878C83.2992 10.542 83.4672 10.206 83.6832 9.87C83.9112 9.522 84.2112 9.174 84.5832 8.826C84.6672 9.042 84.7452 9.288 84.8172 9.564C84.8892 9.828 84.9672 10.08 85.0512 10.32C85.1472 10.56 85.2672 10.764 85.4112 10.932C85.5552 11.1 85.7532 11.184 86.0052 11.184C86.3052 11.184 86.5572 11.124 86.7612 11.004C86.9772 10.884 87.1512 10.734 87.2832 10.554C87.4152 10.374 87.5052 10.176 87.5532 9.96C87.6132 9.732 87.6432 9.51 87.6432 9.294C87.6432 9.018 87.5892 8.742 87.4812 8.466C87.3852 8.178 87.2472 7.92 87.0672 7.692C86.8872 7.464 86.6712 7.278 86.4192 7.134C86.1672 6.99 85.8912 6.918 85.5912 6.918C85.3512 6.918 85.1232 7.014 84.9072 7.206C84.7032 7.386 84.5052 7.602 84.3132 7.854C84.1212 8.106 83.9412 8.358 83.7732 8.61C83.6052 8.862 83.4432 9.054 83.2872 9.186C83.3592 8.982 83.4072 8.766 83.4312 8.538C83.4672 8.298 83.4852 8.058 83.4852 7.818C83.4852 7.446 83.3472 7.26 83.0712 7.26C83.0592 7.26 82.9692 7.272 82.8012 7.296C82.6332 7.32 82.4172 7.356 82.1532 7.404C81.9012 7.44 81.6132 7.482 81.2892 7.53C80.9652 7.566 80.6472 7.608 80.3352 7.656C80.0232 7.692 79.7232 7.728 79.4352 7.764C79.1592 7.8 78.9312 7.824 78.7512 7.836C78.6672 7.86 78.6252 7.926 78.6252 8.034C78.6252 8.274 78.6912 8.43 78.8232 8.502C78.9672 8.562 79.1292 8.604 79.3092 8.628C79.4892 8.652 79.6572 8.688 79.8132 8.736C79.9812 8.772 80.0892 8.886 80.1372 9.078C80.1492 9.114 80.1612 9.216 80.1732 9.384C80.1972 9.54 80.2152 9.744 80.2272 9.996C80.2512 10.248 80.2692 10.53 80.2812 10.842C80.2932 11.154 80.2992 11.466 80.2992 11.778C80.2992 12.306 80.2692 12.792 80.2092 13.236C80.1612 13.68 80.0592 13.986 79.9032 14.154C79.8432 14.214 79.7532 14.256 79.6332 14.28C79.5132 14.292 79.3872 14.304 79.2552 14.316C79.1352 14.328 79.0272 14.352 78.9312 14.388ZM81.0372 14.442C80.8932 14.442 80.7792 14.424 80.6952 14.388C80.7192 13.872 80.7612 13.326 80.8212 12.75C80.8932 12.174 80.9292 11.544 80.9292 10.86C80.9292 10.344 80.8932 9.87 80.8212 9.438C80.7612 9.006 80.6472 8.628 80.4792 8.304C80.8272 8.28 81.1872 8.256 81.5592 8.232C81.9312 8.196 82.3092 8.172 82.6932 8.16C82.5972 8.82 82.5192 9.39 82.4592 9.87C82.4112 10.35 82.3752 10.8 82.3512 11.22C82.3272 11.628 82.3092 12.036 82.2972 12.444C82.2852 12.852 82.2792 13.308 82.2792 13.812C82.2792 13.896 82.2372 13.98 82.1532 14.064C82.0812 14.136 81.9852 14.202 81.8652 14.262C81.7452 14.31 81.6072 14.352 81.4512 14.388C81.3072 14.424 81.1692 14.442 81.0372 14.442ZM85.3392 8.664C85.2912 8.352 85.2672 8.07 85.2672 7.818C85.4832 7.818 85.6932 7.86 85.8972 7.944C86.1012 8.016 86.2812 8.124 86.4372 8.268C86.6052 8.4 86.7372 8.556 86.8332 8.736C86.9292 8.916 86.9772 9.114 86.9772 9.33C86.9772 9.606 86.9172 9.864 86.7972 10.104C86.6772 10.332 86.4792 10.446 86.2032 10.446C86.0712 10.446 85.9452 10.356 85.8252 10.176C85.7172 9.996 85.6212 9.774 85.5372 9.51C85.4532 9.246 85.3872 8.964 85.3392 8.664ZM41.612 33.426C41.648 33.81 41.786 34.176 42.026 34.524C42.59 35.376 43.238 35.964 43.97 36.288C44.702 36.612 45.512 36.774 46.4 36.774C46.484 36.774 46.64 36.756 46.868 36.72C47.096 36.684 47.336 36.642 47.588 36.594C47.84 36.558 48.08 36.51 48.308 36.45C48.536 36.402 48.692 36.36 48.776 36.324C49.472 36.024 50 35.598 50.36 35.046C50.72 34.482 50.9 33.864 50.9 33.192C50.9 32.688 50.81 32.154 50.63 31.59C50.462 31.014 50.21 30.486 49.874 30.006C49.55 29.526 49.148 29.13 48.668 28.818C48.2 28.494 47.66 28.332 47.048 28.332C46.448 28.332 45.824 28.428 45.176 28.62C44.54 28.8 43.952 29.064 43.412 29.412C42.872 29.748 42.428 30.156 42.08 30.636C41.732 31.104 41.558 31.632 41.558 32.22C41.558 32.64 41.576 33.042 41.612 33.426ZM44.204 29.754C44.528 29.55 44.81 29.448 45.05 29.448C44.918 29.652 44.798 29.91 44.69 30.222C44.582 30.534 44.492 30.852 44.42 31.176C44.348 31.488 44.294 31.782 44.258 32.058C44.222 32.322 44.204 32.52 44.204 32.652C44.204 33.168 44.282 33.684 44.438 34.2C44.594 34.704 44.732 35.196 44.852 35.676C44.72 35.676 44.564 35.628 44.384 35.532C44.216 35.424 44.036 35.298 43.844 35.154C43.664 34.998 43.484 34.824 43.304 34.632C43.124 34.44 42.956 34.254 42.8 34.074C42.608 33.858 42.47 33.624 42.386 33.372C42.314 33.12 42.278 32.868 42.278 32.616C42.278 32.256 42.374 31.89 42.566 31.518C42.77 31.146 43.016 30.81 43.304 30.51C43.592 30.198 43.892 29.946 44.204 29.754ZM45.05 33.606C45.026 33.282 45.014 33.006 45.014 32.778C45.014 32.454 45.038 32.088 45.086 31.68C45.134 31.26 45.224 30.87 45.356 30.51C45.5 30.138 45.698 29.832 45.95 29.592C46.214 29.34 46.556 29.214 46.976 29.214C47.084 29.214 47.186 29.298 47.282 29.466C47.39 29.622 47.48 29.82 47.552 30.06C47.636 30.3 47.696 30.558 47.732 30.834C47.78 31.098 47.804 31.344 47.804 31.572C47.804 31.944 47.792 32.364 47.768 32.832C47.756 33.3 47.696 33.744 47.588 34.164C47.48 34.572 47.312 34.92 47.084 35.208C46.856 35.496 46.532 35.64 46.112 35.64C45.896 35.64 45.716 35.532 45.572 35.316C45.428 35.1 45.314 34.842 45.23 34.542C45.146 34.242 45.086 33.93 45.05 33.606ZM47.912 35.262C47.912 35.238 47.918 35.214 47.93 35.19C48.002 34.974 48.074 34.74 48.146 34.488C48.218 34.224 48.284 33.96 48.344 33.696C48.404 33.42 48.452 33.15 48.488 32.886C48.524 32.622 48.542 32.37 48.542 32.13C48.542 31.71 48.506 31.278 48.434 30.834C48.374 30.378 48.26 29.922 48.092 29.466C48.668 29.826 49.13 30.258 49.478 30.762C49.826 31.266 50 31.896 50 32.652C50 32.988 49.958 33.324 49.874 33.66C49.802 33.984 49.688 34.278 49.532 34.542C49.376 34.806 49.178 35.022 48.938 35.19C48.71 35.346 48.446 35.424 48.146 35.424C47.99 35.424 47.912 35.37 47.912 35.262ZM52.0534 33.426C52.0894 33.81 52.2274 34.176 52.4674 34.524C53.0314 35.376 53.6794 35.964 54.4114 36.288C55.1434 36.612 55.9534 36.774 56.8414 36.774C56.9254 36.774 57.0814 36.756 57.3094 36.72C57.5374 36.684 57.7774 36.642 58.0294 36.594C58.2814 36.558 58.5214 36.51 58.7494 36.45C58.9774 36.402 59.1334 36.36 59.2174 36.324C59.9134 36.024 60.4414 35.598 60.8014 35.046C61.1614 34.482 61.3414 33.864 61.3414 33.192C61.3414 32.688 61.2514 32.154 61.0714 31.59C60.9034 31.014 60.6514 30.486 60.3154 30.006C59.9914 29.526 59.5894 29.13 59.1094 28.818C58.6414 28.494 58.1014 28.332 57.4894 28.332C56.8894 28.332 56.2654 28.428 55.6174 28.62C54.9814 28.8 54.3934 29.064 53.8534 29.412C53.3134 29.748 52.8694 30.156 52.5214 30.636C52.1734 31.104 51.9994 31.632 51.9994 32.22C51.9994 32.64 52.0174 33.042 52.0534 33.426ZM54.6454 29.754C54.9694 29.55 55.2514 29.448 55.4914 29.448C55.3594 29.652 55.2394 29.91 55.1314 30.222C55.0234 30.534 54.9334 30.852 54.8614 31.176C54.7894 31.488 54.7354 31.782 54.6994 32.058C54.6634 32.322 54.6454 32.52 54.6454 32.652C54.6454 33.168 54.7234 33.684 54.8794 34.2C55.0354 34.704 55.1734 35.196 55.2934 35.676C55.1614 35.676 55.0054 35.628 54.8254 35.532C54.6574 35.424 54.4774 35.298 54.2854 35.154C54.1054 34.998 53.9254 34.824 53.7454 34.632C53.5654 34.44 53.3974 34.254 53.2414 34.074C53.0494 33.858 52.9114 33.624 52.8274 33.372C52.7554 33.12 52.7194 32.868 52.7194 32.616C52.7194 32.256 52.8154 31.89 53.0074 31.518C53.2114 31.146 53.4574 30.81 53.7454 30.51C54.0334 30.198 54.3334 29.946 54.6454 29.754ZM55.4914 33.606C55.4674 33.282 55.4554 33.006 55.4554 32.778C55.4554 32.454 55.4794 32.088 55.5274 31.68C55.5754 31.26 55.6654 30.87 55.7974 30.51C55.9414 30.138 56.1394 29.832 56.3914 29.592C56.6554 29.34 56.9974 29.214 57.4174 29.214C57.5254 29.214 57.6274 29.298 57.7234 29.466C57.8314 29.622 57.9214 29.82 57.9934 30.06C58.0774 30.3 58.1374 30.558 58.1734 30.834C58.2214 31.098 58.2454 31.344 58.2454 31.572C58.2454 31.944 58.2334 32.364 58.2094 32.832C58.1974 33.3 58.1374 33.744 58.0294 34.164C57.9214 34.572 57.7534 34.92 57.5254 35.208C57.2974 35.496 56.9734 35.64 56.5534 35.64C56.3374 35.64 56.1574 35.532 56.0134 35.316C55.8694 35.1 55.7554 34.842 55.6714 34.542C55.5874 34.242 55.5274 33.93 55.4914 33.606ZM58.3534 35.262C58.3534 35.238 58.3594 35.214 58.3714 35.19C58.4434 34.974 58.5154 34.74 58.5874 34.488C58.6594 34.224 58.7254 33.96 58.7854 33.696C58.8454 33.42 58.8934 33.15 58.9294 32.886C58.9654 32.622 58.9834 32.37 58.9834 32.13C58.9834 31.71 58.9474 31.278 58.8754 30.834C58.8154 30.378 58.7014 29.922 58.5334 29.466C59.1094 29.826 59.5714 30.258 59.9194 30.762C60.2674 31.266 60.4414 31.896 60.4414 32.652C60.4414 32.988 60.3994 33.324 60.3154 33.66C60.2434 33.984 60.1294 34.278 59.9734 34.542C59.8174 34.806 59.6194 35.022 59.3794 35.19C59.1514 35.346 58.8874 35.424 58.5874 35.424C58.4314 35.424 58.3534 35.37 58.3534 35.262ZM62.3902 35.694C62.2942 35.778 62.2462 35.898 62.2462 36.054C62.2462 36.354 62.4382 36.504 62.8222 36.504C62.9302 36.492 63.0922 36.48 63.3082 36.468C63.5242 36.456 63.7702 36.438 64.0462 36.414C64.3342 36.402 64.6282 36.384 64.9282 36.36C65.2402 36.348 65.5342 36.336 65.8102 36.324C66.0862 36.312 66.3322 36.3 66.5482 36.288C66.7642 36.276 66.9202 36.27 67.0162 36.27C67.1722 36.27 67.2502 36.174 67.2502 35.982C67.2502 35.79 67.1842 35.658 67.0522 35.586C66.9202 35.514 66.7702 35.466 66.6022 35.442L66.1342 35.37C65.9902 35.346 65.9002 35.274 65.8642 35.154C65.8522 35.094 65.8402 34.986 65.8282 34.83C65.8162 34.662 65.8042 34.488 65.7922 34.308C65.7922 34.128 65.7862 33.96 65.7742 33.804C65.7622 33.636 65.7562 33.522 65.7562 33.462C65.7562 33.426 65.7622 33.354 65.7742 33.246C65.7862 33.138 65.7982 33.024 65.8102 32.904C65.8222 32.784 65.8342 32.676 65.8462 32.58L65.8642 32.436L66.0982 32.22C66.1222 32.208 66.1762 32.202 66.2602 32.202C66.3562 32.19 66.4282 32.184 66.4762 32.184C66.7522 32.184 66.9802 32.268 67.1602 32.436C67.3522 32.604 67.5202 32.82 67.6642 33.084C67.8082 33.336 67.9402 33.618 68.0602 33.93C68.1922 34.242 68.3302 34.542 68.4742 34.83C68.6302 35.106 68.8042 35.358 68.9962 35.586C69.2002 35.802 69.4522 35.952 69.7522 36.036C69.8842 36.072 70.0042 36.102 70.1122 36.126C70.2202 36.15 70.3282 36.162 70.4362 36.162C70.5562 36.174 70.6822 36.18 70.8142 36.18C70.9582 36.192 71.1262 36.198 71.3182 36.198C71.4742 36.198 71.6482 36.192 71.8402 36.18C72.0322 36.168 72.2122 36.15 72.3802 36.126C72.5482 36.102 72.6862 36.06 72.7942 36C72.9142 35.952 72.9742 35.88 72.9742 35.784C72.9742 35.64 72.9202 35.526 72.8122 35.442C72.7042 35.358 72.5722 35.286 72.4162 35.226C72.2722 35.154 72.1222 35.094 71.9662 35.046C71.8222 34.986 71.7082 34.914 71.6242 34.83C71.4082 34.626 71.1742 34.338 70.9222 33.966C70.6822 33.594 70.4182 33.21 70.1302 32.814C69.8542 32.406 69.5482 32.016 69.2122 31.644C68.8762 31.26 68.5102 30.96 68.1142 30.744L70.3822 28.962H70.7602C70.9042 28.95 71.0362 28.926 71.1562 28.89C71.2762 28.854 71.3722 28.806 71.4442 28.746C71.5162 28.686 71.5522 28.602 71.5522 28.494C71.5522 28.338 71.4802 28.218 71.3362 28.134C71.2042 28.05 71.0362 27.99 70.8322 27.954C70.6402 27.906 70.4242 27.876 70.1842 27.864C69.9562 27.852 69.7462 27.846 69.5542 27.846C69.2542 27.846 69.0022 27.882 68.7982 27.954C68.5942 28.014 68.4922 28.14 68.4922 28.332C68.4922 28.548 68.5762 28.686 68.7442 28.746C68.9242 28.794 69.0982 28.83 69.2662 28.854C68.7982 29.31 68.2882 29.742 67.7362 30.15C67.1842 30.546 66.6382 30.9 66.0982 31.212V31.032C66.0982 30.936 66.0922 30.84 66.0802 30.744V30.456V30.258C66.0802 30.198 66.0862 29.97 66.0982 29.574C66.1102 29.178 66.1222 28.71 66.1342 28.17C66.1582 27.618 66.1822 27.048 66.2062 26.46C66.2422 25.86 66.2782 25.338 66.3142 24.894C66.3742 24.762 66.4102 24.636 66.4222 24.516C66.4342 24.396 66.4402 24.27 66.4402 24.138C66.4402 24.042 66.4162 23.94 66.3682 23.832C66.3322 23.712 66.2242 23.652 66.0442 23.652C65.9842 23.652 65.9122 23.682 65.8282 23.742C65.7562 23.79 65.6782 23.85 65.5942 23.922C65.5222 23.982 65.4502 24.048 65.3782 24.12C65.3062 24.18 65.2462 24.216 65.1982 24.228C65.1022 24.276 64.9342 24.354 64.6942 24.462C64.4662 24.57 64.2202 24.684 63.9562 24.804C63.7042 24.924 63.4582 25.038 63.2182 25.146C62.9782 25.254 62.8102 25.326 62.7142 25.362H62.6602C62.6482 25.35 62.6302 25.344 62.6062 25.344C62.4502 25.344 62.2942 25.386 62.1382 25.47C61.9822 25.554 61.9042 25.68 61.9042 25.848V25.884C61.9162 25.896 61.9222 25.908 61.9222 25.92C62.0182 26.052 62.1322 26.136 62.2642 26.172C62.3962 26.196 62.5222 26.22 62.6422 26.244C62.7622 26.256 62.8702 26.298 62.9662 26.37C63.0622 26.442 63.1282 26.586 63.1642 26.802C63.2242 27.198 63.2662 27.54 63.2902 27.828C63.3262 28.116 63.3502 28.392 63.3622 28.656C63.3862 28.92 63.3982 29.202 63.3982 29.502C63.4102 29.802 63.4162 30.162 63.4162 30.582V31.68C63.4162 31.98 63.4042 32.274 63.3802 32.562C63.3682 32.838 63.3442 33.138 63.3082 33.462C63.2722 33.774 63.2242 34.146 63.1642 34.578C63.1642 34.806 63.1162 34.98 63.0202 35.1C62.9242 35.22 62.8162 35.328 62.6962 35.424C62.5882 35.508 62.4862 35.598 62.3902 35.694ZM64.0462 31.608C64.0702 31.248 64.0822 30.99 64.0822 30.834C64.0822 30.57 64.0762 30.246 64.0642 29.862C64.0642 29.466 64.0462 29.046 64.0102 28.602C63.9742 28.146 63.9142 27.69 63.8302 27.234C63.7582 26.766 63.6502 26.328 63.5062 25.92C63.8542 25.752 64.2082 25.578 64.5682 25.398C64.9402 25.206 65.2282 25.08 65.4322 25.02C65.4802 25.56 65.5042 25.998 65.5042 26.334C65.5162 26.67 65.5222 26.868 65.5222 26.928C65.5222 27.12 65.5162 27.318 65.5042 27.522C65.4922 27.726 65.4802 27.924 65.4682 28.116C65.4682 28.308 65.4622 28.482 65.4502 28.638C65.4382 28.782 65.4322 28.89 65.4322 28.962C65.4322 29.094 65.4202 29.316 65.3962 29.628C65.3722 29.94 65.3422 30.306 65.3062 30.726C65.2702 31.134 65.2282 31.572 65.1802 32.04C65.1442 32.496 65.1082 32.928 65.0722 33.336C65.0362 33.732 65.0062 34.086 64.9822 34.398C64.9582 34.71 64.9462 34.92 64.9462 35.028V35.244C64.9462 35.304 64.9522 35.346 64.9642 35.37C64.8442 35.394 64.7362 35.418 64.6402 35.442L64.3882 35.478H64.1002H63.7222C63.7702 35.082 63.8122 34.65 63.8482 34.182C63.8962 33.702 63.9382 33.24 63.9742 32.796C64.0102 32.352 64.0342 31.956 64.0462 31.608ZM68.1142 32.526C67.8022 32.226 67.4722 31.95 67.1242 31.698C67.1362 31.698 67.1782 31.686 67.2502 31.662C67.3222 31.638 67.4002 31.614 67.4842 31.59C67.5682 31.554 67.6522 31.524 67.7362 31.5C67.8202 31.464 67.8802 31.446 67.9162 31.446C68.4682 31.938 68.8762 32.37 69.1402 32.742C69.4162 33.102 69.6322 33.438 69.7882 33.75C69.9562 34.05 70.1122 34.332 70.2562 34.596C70.4002 34.86 70.6222 35.124 70.9222 35.388C70.5262 35.388 70.2082 35.328 69.9682 35.208C69.7402 35.088 69.5542 34.938 69.4102 34.758C69.2662 34.578 69.1522 34.38 69.0682 34.164C68.9962 33.948 68.9182 33.738 68.8342 33.534C68.6782 33.15 68.4382 32.814 68.1142 32.526ZM73.3731 35.928C73.4451 36.024 73.5471 36.072 73.6791 36.072C74.2311 36.156 74.7831 36.264 75.3351 36.396C75.8991 36.528 76.4631 36.594 77.0271 36.594C77.4231 36.594 77.8551 36.576 78.3231 36.54C78.7911 36.516 79.2231 36.438 79.6191 36.306C80.0151 36.174 80.3451 35.976 80.6091 35.712C80.8851 35.436 81.0231 35.058 81.0231 34.578C81.0231 34.17 80.9091 33.81 80.6811 33.498C80.4531 33.174 80.1711 32.88 79.8351 32.616C79.4991 32.352 79.1271 32.1 78.7191 31.86C78.3231 31.62 77.9571 31.374 77.6211 31.122C77.2851 30.858 77.0031 30.582 76.7751 30.294C76.5471 30.006 76.4331 29.676 76.4331 29.304C76.4331 29.196 76.4931 29.112 76.6131 29.052C76.7451 28.992 76.8951 28.95 77.0631 28.926C77.2431 28.89 77.4111 28.872 77.5671 28.872C77.7351 28.86 77.8551 28.854 77.9271 28.854C78.1911 28.854 78.4191 28.962 78.6111 29.178C78.8151 29.382 79.0071 29.61 79.1871 29.862C79.3791 30.114 79.5771 30.348 79.7811 30.564C79.9851 30.768 80.2191 30.87 80.4831 30.87C80.5911 30.87 80.6691 30.816 80.7171 30.708C80.7771 30.6 80.8191 30.456 80.8431 30.276C80.8671 30.084 80.8791 29.862 80.8791 29.61C80.8911 29.358 80.8971 29.094 80.8971 28.818C80.8971 28.602 80.8791 28.44 80.8431 28.332C80.8191 28.212 80.7651 28.122 80.6811 28.062C80.5971 28.002 80.4771 27.966 80.3211 27.954C80.1651 27.942 79.9611 27.936 79.7091 27.936C79.4691 27.936 79.2291 27.942 78.9891 27.954H78.3411C78.1371 27.954 77.9571 27.96 77.8011 27.972H77.4411C77.1171 27.996 76.7451 28.038 76.3251 28.098C75.9171 28.146 75.5331 28.248 75.1731 28.404C74.8131 28.548 74.5071 28.752 74.2551 29.016C74.0151 29.28 73.8951 29.628 73.8951 30.06C73.8951 30.36 74.0151 30.666 74.2551 30.978C74.4951 31.29 74.7951 31.596 75.1551 31.896C75.5271 32.196 75.9231 32.496 76.3431 32.796C76.7751 33.096 77.1711 33.384 77.5311 33.66C77.9031 33.936 78.2091 34.206 78.4491 34.47C78.6891 34.722 78.8091 34.956 78.8091 35.172C78.8091 35.316 78.7671 35.436 78.6831 35.532C78.6111 35.616 78.5151 35.682 78.3951 35.73C78.2871 35.766 78.1611 35.796 78.0171 35.82C77.8731 35.832 77.7351 35.838 77.6031 35.838C77.1351 35.838 76.7571 35.7 76.4691 35.424C76.1931 35.148 75.9531 34.848 75.7491 34.524C75.5571 34.188 75.3831 33.882 75.2271 33.606C75.0831 33.33 74.9151 33.192 74.7231 33.192C74.5911 33.192 74.4831 33.222 74.3991 33.282C74.3271 33.342 74.2671 33.42 74.2191 33.516C74.1831 33.6 74.1531 33.702 74.1291 33.822C74.1051 33.93 74.0751 34.032 74.0391 34.128C73.9911 34.284 73.9251 34.422 73.8411 34.542L73.5891 34.866C73.5051 34.974 73.4331 35.088 73.3731 35.208C73.3131 35.316 73.2831 35.448 73.2831 35.604C73.2831 35.724 73.3131 35.832 73.3731 35.928ZM74.7951 35.604C74.6031 35.544 74.4651 35.466 74.3811 35.37C74.3811 35.358 74.3871 35.304 74.3991 35.208C74.4111 35.1 74.4291 34.986 74.4531 34.866C74.4771 34.734 74.5071 34.608 74.5431 34.488C74.5791 34.368 74.6151 34.284 74.6511 34.236C74.7231 34.284 74.8131 34.374 74.9211 34.506C75.0411 34.638 75.1551 34.782 75.2631 34.938C75.3831 35.094 75.4911 35.25 75.5871 35.406C75.6831 35.55 75.7491 35.664 75.7851 35.748C75.3291 35.712 74.9991 35.664 74.7951 35.604ZM75.0111 30.78C74.7711 30.528 74.6511 30.294 74.6511 30.078C74.6511 29.574 74.9331 29.28 75.4971 29.196C75.4971 29.556 75.6171 29.91 75.8571 30.258C76.1091 30.594 76.4151 30.924 76.7751 31.248C77.1471 31.572 77.5431 31.884 77.9631 32.184C78.3951 32.484 78.7911 32.778 79.1511 33.066C79.5231 33.342 79.8291 33.612 80.0691 33.876C80.3211 34.128 80.4471 34.368 80.4471 34.596C80.4471 34.74 80.4111 34.86 80.3391 34.956C80.2791 35.052 80.2011 35.13 80.1051 35.19C80.0091 35.25 79.9071 35.304 79.7991 35.352C79.6911 35.388 79.5951 35.424 79.5111 35.46C79.5111 35.112 79.3911 34.77 79.1511 34.434C78.9111 34.086 78.6111 33.75 78.2511 33.426C77.8911 33.09 77.5011 32.772 77.0811 32.472C76.6611 32.16 76.2711 31.866 75.9111 31.59C75.5511 31.302 75.2511 31.032 75.0111 30.78ZM79.6011 29.394C79.4931 29.262 79.3791 29.136 79.2591 29.016C79.1511 28.896 79.0611 28.8 78.9891 28.728C79.0731 28.716 79.1511 28.71 79.2231 28.71C79.3071 28.698 79.3791 28.692 79.4391 28.692C79.7751 28.692 79.9911 28.746 80.0871 28.854C80.1951 28.962 80.2491 29.118 80.2491 29.322C80.2491 29.418 80.2371 29.532 80.2131 29.664C80.2011 29.784 80.1891 29.922 80.1771 30.078C80.1171 29.994 80.0331 29.892 79.9251 29.772C79.8291 29.652 79.7211 29.526 79.6011 29.394Z" fill="black"/>
</svg>
